<mxfile host="app.diagrams.net" modified="2024-05-13T13:46:02.116Z" agent="Mozilla/5.0 (Windows NT 10.0; Win64; x64) AppleWebKit/537.36 (KHTML, like Gecko) Chrome/124.0.0.0 Safari/537.36 Edg/124.0.0.0" etag="Vb0DgD-9qJrztezTDcaA" version="24.3.1" type="device">
  <diagram name="Página-1" id="UvxiDudPCTx69hKIyu-x">
    <mxGraphModel dx="2258" dy="1933" grid="1" gridSize="10" guides="1" tooltips="1" connect="1" arrows="1" fold="1" page="1" pageScale="1" pageWidth="827" pageHeight="1169" math="0" shadow="0">
      <root>
        <mxCell id="0" />
        <mxCell id="1" parent="0" />
        <mxCell id="NnoFlL8IRyMTeSpGXD7a-3" value="" style="rounded=0;whiteSpace=wrap;html=1;fillColor=#f5f5f5;fontColor=#333333;strokeColor=#666666;" parent="1" vertex="1">
          <mxGeometry x="-770" y="-60" width="1100" height="1210" as="geometry" />
        </mxCell>
        <mxCell id="IkJDrjzl-z41PmFatqKp-34" value="" style="rounded=0;whiteSpace=wrap;html=1;gradientColor=none;fillColor=none;dashed=1;strokeColor=#FF0000;strokeWidth=2;" parent="1" vertex="1">
          <mxGeometry x="-750" y="400" width="1060" height="740" as="geometry" />
        </mxCell>
        <mxCell id="IkJDrjzl-z41PmFatqKp-29" value="" style="rounded=0;whiteSpace=wrap;html=1;fillColor=default;dashed=1;strokeColor=#ff0000;" parent="1" vertex="1">
          <mxGeometry x="60" y="944.5" width="225" height="175.5" as="geometry" />
        </mxCell>
        <mxCell id="px6GwIb3NifLbQ9o1P_B-11" style="edgeStyle=orthogonalEdgeStyle;rounded=0;orthogonalLoop=1;jettySize=auto;html=1;exitX=0.5;exitY=1;exitDx=0;exitDy=0;" parent="1" source="GXVUt_CpKELL4S9qzEZ1-18" target="IkJDrjzl-z41PmFatqKp-1" edge="1">
          <mxGeometry relative="1" as="geometry" />
        </mxCell>
        <mxCell id="GXVUt_CpKELL4S9qzEZ1-18" value="LOGIN" style="rounded=1;whiteSpace=wrap;html=1;fillColor=#d5e8d4;strokeColor=#82b366;" parent="1" vertex="1">
          <mxGeometry x="-280" y="60" width="120" height="60" as="geometry" />
        </mxCell>
        <mxCell id="px6GwIb3NifLbQ9o1P_B-17" style="edgeStyle=orthogonalEdgeStyle;rounded=0;orthogonalLoop=1;jettySize=auto;html=1;exitX=0.5;exitY=1;exitDx=0;exitDy=0;entryX=0.5;entryY=0;entryDx=0;entryDy=0;" parent="1" source="GXVUt_CpKELL4S9qzEZ1-19" target="GXVUt_CpKELL4S9qzEZ1-30" edge="1">
          <mxGeometry relative="1" as="geometry" />
        </mxCell>
        <mxCell id="px6GwIb3NifLbQ9o1P_B-19" style="edgeStyle=orthogonalEdgeStyle;rounded=0;orthogonalLoop=1;jettySize=auto;html=1;exitX=0.5;exitY=1;exitDx=0;exitDy=0;" parent="1" source="GXVUt_CpKELL4S9qzEZ1-19" target="GXVUt_CpKELL4S9qzEZ1-28" edge="1">
          <mxGeometry relative="1" as="geometry" />
        </mxCell>
        <mxCell id="px6GwIb3NifLbQ9o1P_B-20" style="edgeStyle=orthogonalEdgeStyle;rounded=0;orthogonalLoop=1;jettySize=auto;html=1;exitX=0.5;exitY=1;exitDx=0;exitDy=0;" parent="1" source="GXVUt_CpKELL4S9qzEZ1-19" target="GXVUt_CpKELL4S9qzEZ1-27" edge="1">
          <mxGeometry relative="1" as="geometry" />
        </mxCell>
        <mxCell id="px6GwIb3NifLbQ9o1P_B-21" style="edgeStyle=orthogonalEdgeStyle;rounded=0;orthogonalLoop=1;jettySize=auto;html=1;exitX=0.5;exitY=1;exitDx=0;exitDy=0;" parent="1" source="GXVUt_CpKELL4S9qzEZ1-19" target="7EyF1_aJlE8CxIVccxEh-1" edge="1">
          <mxGeometry relative="1" as="geometry" />
        </mxCell>
        <mxCell id="GXVUt_CpKELL4S9qzEZ1-19" value="MENU PRINCIPAL ALUNO" style="rounded=1;whiteSpace=wrap;html=1;fillColor=#fff2cc;strokeColor=#d6b656;" parent="1" vertex="1">
          <mxGeometry x="-427" y="330" width="120" height="60" as="geometry" />
        </mxCell>
        <mxCell id="GXVUt_CpKELL4S9qzEZ1-118" style="edgeStyle=orthogonalEdgeStyle;rounded=0;orthogonalLoop=1;jettySize=auto;html=1;exitX=0;exitY=1;exitDx=0;exitDy=0;entryX=0;entryY=0.5;entryDx=0;entryDy=0;" parent="1" source="GXVUt_CpKELL4S9qzEZ1-25" target="GXVUt_CpKELL4S9qzEZ1-110" edge="1">
          <mxGeometry relative="1" as="geometry" />
        </mxCell>
        <mxCell id="GXVUt_CpKELL4S9qzEZ1-119" style="edgeStyle=orthogonalEdgeStyle;rounded=0;orthogonalLoop=1;jettySize=auto;html=1;exitX=0;exitY=1;exitDx=0;exitDy=0;entryX=0;entryY=0.5;entryDx=0;entryDy=0;" parent="1" source="GXVUt_CpKELL4S9qzEZ1-25" target="GXVUt_CpKELL4S9qzEZ1-41" edge="1">
          <mxGeometry relative="1" as="geometry" />
        </mxCell>
        <mxCell id="GXVUt_CpKELL4S9qzEZ1-25" value="CONFIGURAÇÕES DO USUARIO" style="rounded=1;whiteSpace=wrap;html=1;fillColor=#ffcc99;strokeColor=#36393d;" parent="1" vertex="1">
          <mxGeometry x="160" y="444.5" width="120" height="60" as="geometry" />
        </mxCell>
        <mxCell id="GXVUt_CpKELL4S9qzEZ1-113" style="edgeStyle=orthogonalEdgeStyle;rounded=0;orthogonalLoop=1;jettySize=auto;html=1;exitX=0;exitY=1;exitDx=0;exitDy=0;entryX=0;entryY=0.5;entryDx=0;entryDy=0;" parent="1" source="GXVUt_CpKELL4S9qzEZ1-26" target="GXVUt_CpKELL4S9qzEZ1-37" edge="1">
          <mxGeometry relative="1" as="geometry" />
        </mxCell>
        <mxCell id="IkJDrjzl-z41PmFatqKp-16" style="edgeStyle=orthogonalEdgeStyle;rounded=0;orthogonalLoop=1;jettySize=auto;html=1;exitX=0;exitY=1;exitDx=0;exitDy=0;entryX=0;entryY=0.5;entryDx=0;entryDy=0;" parent="1" source="GXVUt_CpKELL4S9qzEZ1-26" target="IkJDrjzl-z41PmFatqKp-13" edge="1">
          <mxGeometry relative="1" as="geometry" />
        </mxCell>
        <mxCell id="GXVUt_CpKELL4S9qzEZ1-26" value="COMUNIDADE" style="rounded=1;whiteSpace=wrap;html=1;fillColor=#ffcc99;strokeColor=#36393d;" parent="1" vertex="1">
          <mxGeometry x="-135" y="444.5" width="120" height="60" as="geometry" />
        </mxCell>
        <mxCell id="GXVUt_CpKELL4S9qzEZ1-103" style="edgeStyle=orthogonalEdgeStyle;rounded=0;orthogonalLoop=1;jettySize=auto;html=1;exitX=0;exitY=1;exitDx=0;exitDy=0;entryX=0;entryY=0.5;entryDx=0;entryDy=0;" parent="1" source="GXVUt_CpKELL4S9qzEZ1-27" target="GXVUt_CpKELL4S9qzEZ1-96" edge="1">
          <mxGeometry relative="1" as="geometry">
            <Array as="points">
              <mxPoint x="-427" y="554.5" />
            </Array>
          </mxGeometry>
        </mxCell>
        <mxCell id="GXVUt_CpKELL4S9qzEZ1-104" style="edgeStyle=orthogonalEdgeStyle;rounded=0;orthogonalLoop=1;jettySize=auto;html=1;exitX=0;exitY=1;exitDx=0;exitDy=0;entryX=0;entryY=0.5;entryDx=0;entryDy=0;" parent="1" source="GXVUt_CpKELL4S9qzEZ1-27" target="GXVUt_CpKELL4S9qzEZ1-101" edge="1">
          <mxGeometry relative="1" as="geometry" />
        </mxCell>
        <mxCell id="GXVUt_CpKELL4S9qzEZ1-105" style="edgeStyle=orthogonalEdgeStyle;rounded=0;orthogonalLoop=1;jettySize=auto;html=1;exitX=0;exitY=1;exitDx=0;exitDy=0;entryX=0;entryY=0.5;entryDx=0;entryDy=0;" parent="1" source="GXVUt_CpKELL4S9qzEZ1-27" target="GXVUt_CpKELL4S9qzEZ1-100" edge="1">
          <mxGeometry relative="1" as="geometry" />
        </mxCell>
        <mxCell id="GXVUt_CpKELL4S9qzEZ1-106" style="edgeStyle=orthogonalEdgeStyle;rounded=0;orthogonalLoop=1;jettySize=auto;html=1;exitX=0;exitY=1;exitDx=0;exitDy=0;entryX=0;entryY=0.5;entryDx=0;entryDy=0;" parent="1" source="GXVUt_CpKELL4S9qzEZ1-27" target="GXVUt_CpKELL4S9qzEZ1-99" edge="1">
          <mxGeometry relative="1" as="geometry" />
        </mxCell>
        <mxCell id="GXVUt_CpKELL4S9qzEZ1-107" style="edgeStyle=orthogonalEdgeStyle;rounded=0;orthogonalLoop=1;jettySize=auto;html=1;exitX=0;exitY=1;exitDx=0;exitDy=0;entryX=0;entryY=0.5;entryDx=0;entryDy=0;" parent="1" source="GXVUt_CpKELL4S9qzEZ1-27" target="GXVUt_CpKELL4S9qzEZ1-98" edge="1">
          <mxGeometry relative="1" as="geometry" />
        </mxCell>
        <mxCell id="GXVUt_CpKELL4S9qzEZ1-108" style="edgeStyle=orthogonalEdgeStyle;rounded=0;orthogonalLoop=1;jettySize=auto;html=1;exitX=0;exitY=1;exitDx=0;exitDy=0;entryX=0;entryY=0.5;entryDx=0;entryDy=0;" parent="1" source="GXVUt_CpKELL4S9qzEZ1-27" target="GXVUt_CpKELL4S9qzEZ1-97" edge="1">
          <mxGeometry relative="1" as="geometry" />
        </mxCell>
        <mxCell id="GXVUt_CpKELL4S9qzEZ1-27" value="ORGANIZADOR DE GASTOS" style="rounded=1;whiteSpace=wrap;html=1;fillColor=#ffcc99;strokeColor=#36393d;" parent="1" vertex="1">
          <mxGeometry x="-427" y="444.5" width="120" height="60" as="geometry" />
        </mxCell>
        <mxCell id="GXVUt_CpKELL4S9qzEZ1-89" style="edgeStyle=orthogonalEdgeStyle;rounded=0;orthogonalLoop=1;jettySize=auto;html=1;exitX=0;exitY=1;exitDx=0;exitDy=0;entryX=0;entryY=0.5;entryDx=0;entryDy=0;" parent="1" source="GXVUt_CpKELL4S9qzEZ1-28" target="GXVUt_CpKELL4S9qzEZ1-80" edge="1">
          <mxGeometry relative="1" as="geometry">
            <Array as="points">
              <mxPoint x="-577" y="554.5" />
            </Array>
          </mxGeometry>
        </mxCell>
        <mxCell id="IkJDrjzl-z41PmFatqKp-15" style="edgeStyle=orthogonalEdgeStyle;rounded=0;orthogonalLoop=1;jettySize=auto;html=1;exitX=0;exitY=1;exitDx=0;exitDy=0;entryX=0;entryY=0.5;entryDx=0;entryDy=0;" parent="1" source="GXVUt_CpKELL4S9qzEZ1-28" target="IkJDrjzl-z41PmFatqKp-14" edge="1">
          <mxGeometry relative="1" as="geometry">
            <Array as="points">
              <mxPoint x="-577" y="634.5" />
            </Array>
          </mxGeometry>
        </mxCell>
        <mxCell id="GXVUt_CpKELL4S9qzEZ1-28" value="TRILHAS" style="rounded=1;whiteSpace=wrap;html=1;fillColor=#ffcc99;strokeColor=#36393d;" parent="1" vertex="1">
          <mxGeometry x="-577" y="444.5" width="120" height="60" as="geometry" />
        </mxCell>
        <mxCell id="GXVUt_CpKELL4S9qzEZ1-71" style="edgeStyle=orthogonalEdgeStyle;rounded=0;orthogonalLoop=1;jettySize=auto;html=1;exitX=0;exitY=1;exitDx=0;exitDy=0;entryX=0;entryY=0.5;entryDx=0;entryDy=0;" parent="1" source="GXVUt_CpKELL4S9qzEZ1-29" target="GXVUt_CpKELL4S9qzEZ1-32" edge="1">
          <mxGeometry relative="1" as="geometry">
            <Array as="points">
              <mxPoint x="-730" y="634.5" />
            </Array>
          </mxGeometry>
        </mxCell>
        <mxCell id="7EyF1_aJlE8CxIVccxEh-4" style="edgeStyle=orthogonalEdgeStyle;rounded=0;orthogonalLoop=1;jettySize=auto;html=1;exitX=0;exitY=1;exitDx=0;exitDy=0;entryX=0;entryY=0.5;entryDx=0;entryDy=0;" parent="1" source="GXVUt_CpKELL4S9qzEZ1-29" target="GXVUt_CpKELL4S9qzEZ1-33" edge="1">
          <mxGeometry relative="1" as="geometry" />
        </mxCell>
        <mxCell id="IkJDrjzl-z41PmFatqKp-19" style="edgeStyle=orthogonalEdgeStyle;rounded=0;orthogonalLoop=1;jettySize=auto;html=1;exitX=0;exitY=1;exitDx=0;exitDy=0;entryX=0;entryY=0.5;entryDx=0;entryDy=0;" parent="1" source="GXVUt_CpKELL4S9qzEZ1-29" target="IkJDrjzl-z41PmFatqKp-18" edge="1">
          <mxGeometry relative="1" as="geometry" />
        </mxCell>
        <mxCell id="X6eICQ6PJf0R-Lsuph4n-5" style="edgeStyle=orthogonalEdgeStyle;rounded=0;orthogonalLoop=1;jettySize=auto;html=1;exitX=0;exitY=1;exitDx=0;exitDy=0;entryX=0;entryY=0.5;entryDx=0;entryDy=0;" parent="1" source="GXVUt_CpKELL4S9qzEZ1-29" target="GXVUt_CpKELL4S9qzEZ1-31" edge="1">
          <mxGeometry relative="1" as="geometry">
            <Array as="points">
              <mxPoint x="-730" y="554.5" />
            </Array>
          </mxGeometry>
        </mxCell>
        <mxCell id="GXVUt_CpKELL4S9qzEZ1-29" value="FEED DE NOTÍCIAS" style="rounded=1;whiteSpace=wrap;html=1;fillColor=#ffcc99;strokeColor=#36393d;" parent="1" vertex="1">
          <mxGeometry x="-730" y="444.5" width="120" height="60" as="geometry" />
        </mxCell>
        <mxCell id="GXVUt_CpKELL4S9qzEZ1-115" style="edgeStyle=orthogonalEdgeStyle;rounded=0;orthogonalLoop=1;jettySize=auto;html=1;exitX=0;exitY=1;exitDx=0;exitDy=0;entryX=0;entryY=0.5;entryDx=0;entryDy=0;" parent="1" source="GXVUt_CpKELL4S9qzEZ1-30" target="GXVUt_CpKELL4S9qzEZ1-43" edge="1">
          <mxGeometry relative="1" as="geometry" />
        </mxCell>
        <mxCell id="GXVUt_CpKELL4S9qzEZ1-116" style="edgeStyle=orthogonalEdgeStyle;rounded=0;orthogonalLoop=1;jettySize=auto;html=1;exitX=0;exitY=1;exitDx=0;exitDy=0;entryX=0;entryY=0.5;entryDx=0;entryDy=0;" parent="1" source="GXVUt_CpKELL4S9qzEZ1-30" target="GXVUt_CpKELL4S9qzEZ1-111" edge="1">
          <mxGeometry relative="1" as="geometry" />
        </mxCell>
        <mxCell id="GXVUt_CpKELL4S9qzEZ1-30" value="CONFIGURAÇÕES DO APP" style="rounded=1;whiteSpace=wrap;html=1;fillColor=#ffcc99;strokeColor=#36393d;" parent="1" vertex="1">
          <mxGeometry x="15" y="444.5" width="120" height="60" as="geometry" />
        </mxCell>
        <mxCell id="GXVUt_CpKELL4S9qzEZ1-31" value="NOTÍCIAS" style="rounded=1;whiteSpace=wrap;html=1;fillColor=#cce5ff;strokeColor=#36393d;" parent="1" vertex="1">
          <mxGeometry x="-710" y="524.5" width="100" height="60" as="geometry" />
        </mxCell>
        <mxCell id="GXVUt_CpKELL4S9qzEZ1-32" value="DICAS E INFORMAÇÕES" style="rounded=1;whiteSpace=wrap;html=1;fillColor=#cce5ff;strokeColor=#36393d;" parent="1" vertex="1">
          <mxGeometry x="-710" y="604.5" width="100" height="60" as="geometry" />
        </mxCell>
        <mxCell id="GXVUt_CpKELL4S9qzEZ1-81" style="edgeStyle=orthogonalEdgeStyle;rounded=0;orthogonalLoop=1;jettySize=auto;html=1;exitX=0;exitY=1;exitDx=0;exitDy=0;entryX=0;entryY=0.5;entryDx=0;entryDy=0;" parent="1" source="GXVUt_CpKELL4S9qzEZ1-33" target="GXVUt_CpKELL4S9qzEZ1-35" edge="1">
          <mxGeometry relative="1" as="geometry" />
        </mxCell>
        <mxCell id="GXVUt_CpKELL4S9qzEZ1-85" style="edgeStyle=orthogonalEdgeStyle;rounded=0;orthogonalLoop=1;jettySize=auto;html=1;exitX=0;exitY=1;exitDx=0;exitDy=0;entryX=0;entryY=0.5;entryDx=0;entryDy=0;" parent="1" source="GXVUt_CpKELL4S9qzEZ1-33" target="GXVUt_CpKELL4S9qzEZ1-36" edge="1">
          <mxGeometry relative="1" as="geometry" />
        </mxCell>
        <mxCell id="GXVUt_CpKELL4S9qzEZ1-86" style="edgeStyle=orthogonalEdgeStyle;rounded=0;orthogonalLoop=1;jettySize=auto;html=1;exitX=0;exitY=1;exitDx=0;exitDy=0;entryX=0;entryY=0.5;entryDx=0;entryDy=0;" parent="1" source="GXVUt_CpKELL4S9qzEZ1-33" target="GXVUt_CpKELL4S9qzEZ1-39" edge="1">
          <mxGeometry relative="1" as="geometry" />
        </mxCell>
        <mxCell id="GXVUt_CpKELL4S9qzEZ1-87" style="edgeStyle=orthogonalEdgeStyle;rounded=0;orthogonalLoop=1;jettySize=auto;html=1;exitX=0;exitY=1;exitDx=0;exitDy=0;entryX=0;entryY=0.5;entryDx=0;entryDy=0;" parent="1" source="GXVUt_CpKELL4S9qzEZ1-33" target="GXVUt_CpKELL4S9qzEZ1-34" edge="1">
          <mxGeometry relative="1" as="geometry" />
        </mxCell>
        <mxCell id="GXVUt_CpKELL4S9qzEZ1-88" style="edgeStyle=orthogonalEdgeStyle;rounded=0;orthogonalLoop=1;jettySize=auto;html=1;exitX=0;exitY=1;exitDx=0;exitDy=0;entryX=0;entryY=0.5;entryDx=0;entryDy=0;" parent="1" source="GXVUt_CpKELL4S9qzEZ1-33" target="GXVUt_CpKELL4S9qzEZ1-84" edge="1">
          <mxGeometry relative="1" as="geometry" />
        </mxCell>
        <mxCell id="GXVUt_CpKELL4S9qzEZ1-33" value="INVESTIMENTOS" style="rounded=1;whiteSpace=wrap;html=1;fillColor=#cce5ff;strokeColor=#36393d;" parent="1" vertex="1">
          <mxGeometry x="-710" y="764.5" width="100" height="60" as="geometry" />
        </mxCell>
        <mxCell id="GXVUt_CpKELL4S9qzEZ1-34" value="POUPANÇA" style="rounded=1;whiteSpace=wrap;html=1;fillColor=#cce5ff;strokeColor=#36393d;" parent="1" vertex="1">
          <mxGeometry x="-690" y="1014.5" width="80" height="50" as="geometry" />
        </mxCell>
        <mxCell id="GXVUt_CpKELL4S9qzEZ1-35" value="LCI / LCA" style="rounded=1;whiteSpace=wrap;html=1;fillColor=#cce5ff;strokeColor=#36393d;" parent="1" vertex="1">
          <mxGeometry x="-690" y="834.5" width="80" height="50" as="geometry" />
        </mxCell>
        <mxCell id="GXVUt_CpKELL4S9qzEZ1-36" value="CDB" style="rounded=1;whiteSpace=wrap;html=1;fillColor=#cce5ff;strokeColor=#36393d;" parent="1" vertex="1">
          <mxGeometry x="-690" y="894.5" width="80" height="50" as="geometry" />
        </mxCell>
        <mxCell id="GXVUt_CpKELL4S9qzEZ1-37" value="TURMAS" style="rounded=1;whiteSpace=wrap;html=1;fillColor=#cce5ff;strokeColor=#36393d;" parent="1" vertex="1">
          <mxGeometry x="-115" y="524.5" width="100" height="60" as="geometry" />
        </mxCell>
        <mxCell id="GXVUt_CpKELL4S9qzEZ1-39" value="TESOURO DIRETO" style="rounded=1;whiteSpace=wrap;html=1;fillColor=#cce5ff;strokeColor=#36393d;" parent="1" vertex="1">
          <mxGeometry x="-690" y="954.5" width="80" height="50" as="geometry" />
        </mxCell>
        <mxCell id="GXVUt_CpKELL4S9qzEZ1-41" value="LOGOUT" style="rounded=1;whiteSpace=wrap;html=1;fillColor=#cce5ff;strokeColor=#36393d;" parent="1" vertex="1">
          <mxGeometry x="185" y="604.5" width="100" height="60" as="geometry" />
        </mxCell>
        <mxCell id="GXVUt_CpKELL4S9qzEZ1-43" value="ALTERAR TEMA" style="rounded=1;whiteSpace=wrap;html=1;fillColor=#cce5ff;strokeColor=#36393d;" parent="1" vertex="1">
          <mxGeometry x="35" y="524.5" width="100" height="60" as="geometry" />
        </mxCell>
        <mxCell id="px6GwIb3NifLbQ9o1P_B-3" style="edgeStyle=orthogonalEdgeStyle;rounded=0;orthogonalLoop=1;jettySize=auto;html=1;exitX=0.5;exitY=1;exitDx=0;exitDy=0;" parent="1" source="GXVUt_CpKELL4S9qzEZ1-48" target="GXVUt_CpKELL4S9qzEZ1-18" edge="1">
          <mxGeometry relative="1" as="geometry" />
        </mxCell>
        <mxCell id="GXVUt_CpKELL4S9qzEZ1-48" value="" style="ellipse;whiteSpace=wrap;html=1;aspect=fixed;fillColor=#d5e8d4;strokeColor=#82b366;" parent="1" vertex="1">
          <mxGeometry x="-240" y="-20" width="40" height="40" as="geometry" />
        </mxCell>
        <mxCell id="GXVUt_CpKELL4S9qzEZ1-80" value="DESAFIOS E JOGOS" style="rounded=1;whiteSpace=wrap;html=1;fillColor=#cce5ff;strokeColor=#36393d;" parent="1" vertex="1">
          <mxGeometry x="-557" y="524.5" width="100" height="60" as="geometry" />
        </mxCell>
        <mxCell id="GXVUt_CpKELL4S9qzEZ1-84" value="PREVIDÊNCIA" style="rounded=1;whiteSpace=wrap;html=1;fillColor=#cce5ff;strokeColor=#36393d;" parent="1" vertex="1">
          <mxGeometry x="-690" y="1074.5" width="80" height="50" as="geometry" />
        </mxCell>
        <mxCell id="GXVUt_CpKELL4S9qzEZ1-96" value="INSERIR RECEITA" style="rounded=1;whiteSpace=wrap;html=1;fillColor=#fff2cc;strokeColor=#d6b656;" parent="1" vertex="1">
          <mxGeometry x="-407" y="524.5" width="100" height="60" as="geometry" />
        </mxCell>
        <mxCell id="GXVUt_CpKELL4S9qzEZ1-97" value="DESAFIOS PARA POUPAR" style="rounded=1;whiteSpace=wrap;html=1;fillColor=#fff2cc;strokeColor=#d6b656;" parent="1" vertex="1">
          <mxGeometry x="-407" y="924.5" width="100" height="60" as="geometry" />
        </mxCell>
        <mxCell id="GXVUt_CpKELL4S9qzEZ1-98" value="RELÁTORIOS" style="rounded=1;whiteSpace=wrap;html=1;fillColor=#fff2cc;strokeColor=#d6b656;" parent="1" vertex="1">
          <mxGeometry x="-407" y="844.5" width="100" height="60" as="geometry" />
        </mxCell>
        <mxCell id="GXVUt_CpKELL4S9qzEZ1-99" value="CATEGORIZAR DESPESAS&lt;br&gt;" style="rounded=1;whiteSpace=wrap;html=1;fillColor=#fff2cc;strokeColor=#d6b656;" parent="1" vertex="1">
          <mxGeometry x="-407" y="764.5" width="100" height="60" as="geometry" />
        </mxCell>
        <mxCell id="GXVUt_CpKELL4S9qzEZ1-100" value="CATEGORIZAR RECEITAS" style="rounded=1;whiteSpace=wrap;html=1;fillColor=#fff2cc;strokeColor=#d6b656;" parent="1" vertex="1">
          <mxGeometry x="-407" y="684.5" width="100" height="60" as="geometry" />
        </mxCell>
        <mxCell id="GXVUt_CpKELL4S9qzEZ1-101" value="INSERIR DESPESAS" style="rounded=1;whiteSpace=wrap;html=1;fillColor=#fff2cc;strokeColor=#d6b656;" parent="1" vertex="1">
          <mxGeometry x="-407" y="604.5" width="100" height="60" as="geometry" />
        </mxCell>
        <mxCell id="GXVUt_CpKELL4S9qzEZ1-110" value="ATUALIZAR / ALTERAR DADOS" style="rounded=1;whiteSpace=wrap;html=1;fillColor=#cce5ff;strokeColor=#36393d;" parent="1" vertex="1">
          <mxGeometry x="185" y="524.5" width="100" height="60" as="geometry" />
        </mxCell>
        <mxCell id="GXVUt_CpKELL4S9qzEZ1-111" value="CONFIGURAÇÕES DE ÁUDIO" style="rounded=1;whiteSpace=wrap;html=1;fillColor=#cce5ff;strokeColor=#36393d;" parent="1" vertex="1">
          <mxGeometry x="35" y="604.5" width="100" height="60" as="geometry" />
        </mxCell>
        <mxCell id="GXVUt_CpKELL4S9qzEZ1-120" value="&lt;font size=&quot;1&quot;&gt;&lt;b style=&quot;font-size: 16px;&quot;&gt;ESTRUTURA DO APLICATIVO&lt;/b&gt;&lt;/font&gt;" style="rounded=0;whiteSpace=wrap;html=1;fillColor=none;strokeColor=none;" parent="1" vertex="1">
          <mxGeometry x="-335" y="-60" width="230" height="40" as="geometry" />
        </mxCell>
        <mxCell id="7EyF1_aJlE8CxIVccxEh-6" style="edgeStyle=orthogonalEdgeStyle;rounded=0;orthogonalLoop=1;jettySize=auto;html=1;exitX=0;exitY=1;exitDx=0;exitDy=0;entryX=0;entryY=0.5;entryDx=0;entryDy=0;" parent="1" source="7EyF1_aJlE8CxIVccxEh-1" target="7EyF1_aJlE8CxIVccxEh-3" edge="1">
          <mxGeometry relative="1" as="geometry" />
        </mxCell>
        <mxCell id="7EyF1_aJlE8CxIVccxEh-1" value="REALIDADE AUMENTADA" style="rounded=1;whiteSpace=wrap;html=1;fillColor=#ffcc99;strokeColor=#36393d;" parent="1" vertex="1">
          <mxGeometry x="-280" y="444.5" width="120" height="60" as="geometry" />
        </mxCell>
        <mxCell id="7EyF1_aJlE8CxIVccxEh-3" value="ACESSO PELA CÂMERA" style="rounded=1;whiteSpace=wrap;html=1;fillColor=#cce5ff;strokeColor=#36393d;" parent="1" vertex="1">
          <mxGeometry x="-260" y="524.5" width="100" height="60" as="geometry" />
        </mxCell>
        <mxCell id="px6GwIb3NifLbQ9o1P_B-12" value="" style="edgeStyle=orthogonalEdgeStyle;rounded=0;orthogonalLoop=1;jettySize=auto;html=1;" parent="1" source="IkJDrjzl-z41PmFatqKp-1" target="px6GwIb3NifLbQ9o1P_B-6" edge="1">
          <mxGeometry relative="1" as="geometry" />
        </mxCell>
        <mxCell id="px6GwIb3NifLbQ9o1P_B-14" value="" style="edgeStyle=orthogonalEdgeStyle;rounded=0;orthogonalLoop=1;jettySize=auto;html=1;" parent="1" source="IkJDrjzl-z41PmFatqKp-1" target="px6GwIb3NifLbQ9o1P_B-5" edge="1">
          <mxGeometry relative="1" as="geometry" />
        </mxCell>
        <mxCell id="vDZ0gqjRfttw_ehKgVSJ-2" value="" style="edgeStyle=orthogonalEdgeStyle;rounded=0;orthogonalLoop=1;jettySize=auto;html=1;" edge="1" parent="1" source="IkJDrjzl-z41PmFatqKp-1" target="vDZ0gqjRfttw_ehKgVSJ-1">
          <mxGeometry relative="1" as="geometry" />
        </mxCell>
        <mxCell id="IkJDrjzl-z41PmFatqKp-1" value="" style="html=1;whiteSpace=wrap;aspect=fixed;shape=isoRectangle;" parent="1" vertex="1">
          <mxGeometry x="-253.5" y="150" width="67" height="40.2" as="geometry" />
        </mxCell>
        <mxCell id="px6GwIb3NifLbQ9o1P_B-18" style="edgeStyle=orthogonalEdgeStyle;rounded=0;orthogonalLoop=1;jettySize=auto;html=1;exitX=0.5;exitY=1;exitDx=0;exitDy=0;" parent="1" source="IkJDrjzl-z41PmFatqKp-3" target="GXVUt_CpKELL4S9qzEZ1-29" edge="1">
          <mxGeometry relative="1" as="geometry" />
        </mxCell>
        <mxCell id="px6GwIb3NifLbQ9o1P_B-22" style="edgeStyle=orthogonalEdgeStyle;rounded=0;orthogonalLoop=1;jettySize=auto;html=1;exitX=0.5;exitY=1;exitDx=0;exitDy=0;entryX=0.5;entryY=0;entryDx=0;entryDy=0;" parent="1" source="IkJDrjzl-z41PmFatqKp-3" target="GXVUt_CpKELL4S9qzEZ1-26" edge="1">
          <mxGeometry relative="1" as="geometry" />
        </mxCell>
        <mxCell id="px6GwIb3NifLbQ9o1P_B-24" style="edgeStyle=orthogonalEdgeStyle;rounded=0;orthogonalLoop=1;jettySize=auto;html=1;exitX=0.5;exitY=1;exitDx=0;exitDy=0;entryX=0.5;entryY=0;entryDx=0;entryDy=0;" parent="1" source="IkJDrjzl-z41PmFatqKp-3" target="GXVUt_CpKELL4S9qzEZ1-25" edge="1">
          <mxGeometry relative="1" as="geometry" />
        </mxCell>
        <mxCell id="IkJDrjzl-z41PmFatqKp-3" value="MENU PRINCIPAL PROFESSORES" style="rounded=1;whiteSpace=wrap;html=1;fillColor=#f8cecc;strokeColor=#b85450;" parent="1" vertex="1">
          <mxGeometry x="-135" y="330" width="120" height="60" as="geometry" />
        </mxCell>
        <mxCell id="IkJDrjzl-z41PmFatqKp-13" value="GERENCIAR TURMAS" style="rounded=1;whiteSpace=wrap;html=1;fillColor=#f8cecc;strokeColor=#b85450;" parent="1" vertex="1">
          <mxGeometry x="-115" y="604.5" width="100" height="60" as="geometry" />
        </mxCell>
        <mxCell id="IkJDrjzl-z41PmFatqKp-14" value="GERENCIAR TRILHAS" style="rounded=1;whiteSpace=wrap;html=1;fillColor=#f8cecc;strokeColor=#b85450;" parent="1" vertex="1">
          <mxGeometry x="-557" y="604.5" width="100" height="60" as="geometry" />
        </mxCell>
        <mxCell id="IkJDrjzl-z41PmFatqKp-18" value="GERENCIAR FEED" style="rounded=1;whiteSpace=wrap;html=1;fillColor=#f8cecc;strokeColor=#b85450;" parent="1" vertex="1">
          <mxGeometry x="-710" y="684.5" width="100" height="60" as="geometry" />
        </mxCell>
        <mxCell id="IkJDrjzl-z41PmFatqKp-21" value="" style="rounded=1;whiteSpace=wrap;html=1;fillColor=#f8cecc;strokeColor=#b85450;" parent="1" vertex="1">
          <mxGeometry x="85" y="954.5" width="40" height="40" as="geometry" />
        </mxCell>
        <mxCell id="IkJDrjzl-z41PmFatqKp-25" value="" style="rounded=1;whiteSpace=wrap;html=1;fillColor=#dae8fc;strokeColor=#6c8ebf;" parent="1" vertex="1">
          <mxGeometry x="85" y="1064.5" width="40" height="40" as="geometry" />
        </mxCell>
        <mxCell id="IkJDrjzl-z41PmFatqKp-26" value="Apenas Professor " style="text;html=1;align=center;verticalAlign=middle;whiteSpace=wrap;rounded=0;" parent="1" vertex="1">
          <mxGeometry x="135" y="959.5" width="110" height="30" as="geometry" />
        </mxCell>
        <mxCell id="IkJDrjzl-z41PmFatqKp-27" value="Apenas Aluno " style="text;html=1;align=center;verticalAlign=middle;whiteSpace=wrap;rounded=0;" parent="1" vertex="1">
          <mxGeometry x="125" y="1014.5" width="110" height="30" as="geometry" />
        </mxCell>
        <mxCell id="IkJDrjzl-z41PmFatqKp-28" value="Ambos" style="text;html=1;align=center;verticalAlign=middle;whiteSpace=wrap;rounded=0;" parent="1" vertex="1">
          <mxGeometry x="135" y="1069.5" width="55" height="30" as="geometry" />
        </mxCell>
        <mxCell id="IkJDrjzl-z41PmFatqKp-30" value="" style="rounded=1;whiteSpace=wrap;html=1;fillColor=#fff2cc;strokeColor=#d6b656;" parent="1" vertex="1">
          <mxGeometry x="85" y="1007.25" width="40" height="40" as="geometry" />
        </mxCell>
        <mxCell id="px6GwIb3NifLbQ9o1P_B-9" style="edgeStyle=orthogonalEdgeStyle;rounded=0;orthogonalLoop=1;jettySize=auto;html=1;exitX=0.5;exitY=1;exitDx=0;exitDy=0;entryX=0.5;entryY=0;entryDx=0;entryDy=0;" parent="1" source="px6GwIb3NifLbQ9o1P_B-5" target="IkJDrjzl-z41PmFatqKp-3" edge="1">
          <mxGeometry relative="1" as="geometry" />
        </mxCell>
        <mxCell id="px6GwIb3NifLbQ9o1P_B-5" value="PROFESSOR" style="rounded=1;whiteSpace=wrap;html=1;fillColor=#d5e8d4;strokeColor=#82b366;" parent="1" vertex="1">
          <mxGeometry x="-135" y="230" width="120" height="60" as="geometry" />
        </mxCell>
        <mxCell id="px6GwIb3NifLbQ9o1P_B-15" value="" style="edgeStyle=orthogonalEdgeStyle;rounded=0;orthogonalLoop=1;jettySize=auto;html=1;" parent="1" source="px6GwIb3NifLbQ9o1P_B-6" target="GXVUt_CpKELL4S9qzEZ1-19" edge="1">
          <mxGeometry relative="1" as="geometry" />
        </mxCell>
        <mxCell id="px6GwIb3NifLbQ9o1P_B-6" value="ALUNO" style="rounded=1;whiteSpace=wrap;html=1;fillColor=#d5e8d4;strokeColor=#82b366;" parent="1" vertex="1">
          <mxGeometry x="-427" y="230" width="120" height="60" as="geometry" />
        </mxCell>
        <mxCell id="vDZ0gqjRfttw_ehKgVSJ-4" style="edgeStyle=orthogonalEdgeStyle;rounded=0;orthogonalLoop=1;jettySize=auto;html=1;exitX=0.5;exitY=1;exitDx=0;exitDy=0;" edge="1" parent="1" source="vDZ0gqjRfttw_ehKgVSJ-1" target="vDZ0gqjRfttw_ehKgVSJ-3">
          <mxGeometry relative="1" as="geometry" />
        </mxCell>
        <mxCell id="vDZ0gqjRfttw_ehKgVSJ-1" value="MODERADOR" style="rounded=1;whiteSpace=wrap;html=1;fillColor=#d5e8d4;strokeColor=#82b366;" vertex="1" parent="1">
          <mxGeometry x="-280" y="230" width="120" height="60" as="geometry" />
        </mxCell>
        <mxCell id="vDZ0gqjRfttw_ehKgVSJ-3" value="CADASTRO" style="rounded=1;whiteSpace=wrap;html=1;fillColor=#d5e8d4;strokeColor=#82b366;" vertex="1" parent="1">
          <mxGeometry x="-280" y="330" width="120" height="60" as="geometry" />
        </mxCell>
      </root>
    </mxGraphModel>
  </diagram>
</mxfile>
